<svg width="876" height="491" viewBox="0 0 876 491" fill="none" xmlns="http://www.w3.org/2000/svg">
<g clip-path="url(#clip0)">
<path d="M775.05 255.9C810.916 227.502 850.916 279.6 821.916 307.2C889.416 307.2 893.916 385.502 838.916 400C857.683 456.762 774.201 459.212 767.245 406.125C758.302 460.894 660.65 448.408 650.667 407.082C643.914 448.497 567.837 472.316 552.25 431.002C545.45 443.302 533.916 458.702 528.916 448.502C530.116 466.902 480.116 450.202 465.416 448.502C459.363 502.742 381.782 508.102 370.916 448.502C349.19 462.213 287.808 464.723 283.092 435.162C280.671 467.72 223.516 472.322 207.95 431.002C170.916 439.002 115.416 449.502 118.416 419.502C89.4161 458.502 1.32626 480.002 0.0250834 400C-2.27492 258.6 154.35 244.8 159.55 321.6C163.15 309.3 204.25 293.4 207.95 330C224.45 286.2 295.65 303.4 286.65 334.4C293.45 322.1 309.85 322.1 314.75 332.2C313.55 313.8 332.85 305.4 347.55 307.1C362.75 308.8 377.75 302.8 385.65 292.3C395.85 278.9 410.15 306 410.15 280.9L419.45 282.3L428.85 279.6C428.85 304.7 443.05 278.9 453.25 292.4C461.25 302.9 476.25 308.9 491.35 307.2C506.05 305.5 525.35 313.9 524.15 332.3C529.15 322.1 545.45 322.2 552.25 334.5C543.25 303.5 583.85 273.7 630.95 297.3C629.05 286.5 646.85 280.6 650.45 292.9C639.65 237.5 724.85 202 775.05 255.9Z" fill="#3392CC"/>
<path d="M684.95 377.3C687.05 344.1 738.75 348.6 740.85 374.3C772.75 333.3 815.525 367.8 815.525 400V418.502C813.416 456.002 772.75 484.9 740.85 443.9C738.75 469.6 687.05 474.1 684.95 440.9C663.75 487.5 587.65 491.3 570.35 455C566.65 470.9 543.95 475.2 533.75 462.1C535.35 485.1 475.916 493.502 468.916 462.1C460.916 515.502 361.416 505.502 361.416 462.1C355.416 488.502 304.55 485.1 306.15 462.1C295.95 475.2 273.25 470.9 269.55 455C252.25 491.4 189.45 487.5 168.25 440.9C166.15 474.1 111.85 469.6 109.75 443.9C103.15 483.4 22.9162 492.502 20.3502 418.2L20.3502 400C35.1502 323.8 103.15 334.8 109.75 374.3C111.85 348.6 166.15 344.1 168.25 377.3C189.45 330.7 252.25 326.8 269.55 363.2C273.25 347.3 295.95 343 306.15 356.1C304.55 333.1 324.75 321.1 346.45 319.5C361.65 318.4 375.05 310.5 382.85 298.8C396.95 277.6 411.95 311.5 411.95 259.2L427.85 259.5C427.85 311.8 442.95 277.6 457.05 298.8C464.85 310.5 478.35 318.4 493.45 319.5C515.15 321.1 535.35 333.1 533.75 356.1C543.95 343 566.65 347.3 570.35 363.2C587.65 326.9 663.75 330.7 684.95 377.3Z" fill="#BEDFF4"/>
<path d="M317.85 181.7H523.85C525.35 181.7 526.65 179.8 526.65 177.5C526.65 175.2 525.45 173.3 523.85 173.3H317.85C316.35 173.3 315.05 175.2 315.05 177.5C315.05 179.8 316.35 181.7 317.85 181.7Z" fill="#FFB940"/>
<path fill-rule="evenodd" clip-rule="evenodd" d="M313.15 177.4C313.15 175.9 313.55 174.5 314.25 173.3C314.95 172.2 316.25 171.2 317.85 171.2H523.85C525.45 171.2 526.75 172.2 527.45 173.3C528.15 174.4 528.55 175.9 528.55 177.4C528.55 178.9 528.15 180.3 527.45 181.5C526.75 182.6 525.55 183.6 523.85 183.6H317.85C316.25 183.6 314.95 182.6 314.25 181.5C313.55 180.4 313.15 178.9 313.15 177.4ZM523.85 181.7H317.85C316.35 181.7 315.05 179.8 315.05 177.5C315.05 175.2 316.25 173.3 317.85 173.3H523.85C525.35 173.3 526.65 175.2 526.65 177.5C526.65 179.8 525.35 181.7 523.85 181.7Z" fill="black"/>
<path d="M315.35 179.1C315.75 180.6 316.75 181.7 317.85 181.7H523.85C524.95 181.7 525.95 180.6 526.45 179.1H315.35Z" fill="black" fill-opacity="0.2"/>
<path d="M484.65 168.7H369.75C369.25 168.7 368.75 169.1 368.75 169.7V172.2C368.75 172.7 369.15 173.2 369.75 173.2H484.65C485.15 173.2 485.65 172.8 485.65 172.2V169.7C485.55 169.2 485.15 168.7 484.65 168.7Z" fill="#FFB940"/>
<path fill-rule="evenodd" clip-rule="evenodd" d="M369.75 166.8H484.65C486.25 166.8 487.55 168.1 487.55 169.7V172.2C487.55 173.8 486.25 175.1 484.65 175.1H369.75C368.15 175.1 366.85 173.8 366.85 172.2V169.7C366.85 168.1 368.15 166.8 369.75 166.8ZM369.75 168.7H484.65C485.15 168.7 485.65 169.1 485.65 169.7V172.2C485.65 172.7 485.25 173.2 484.65 173.2H369.75C369.25 173.2 368.75 172.8 368.75 172.2V169.7C368.75 169.2 369.15 168.7 369.75 168.7Z" fill="black"/>
<path d="M343.25 18.8999H501.75C512.65 18.8999 521.45 27.6999 521.45 38.5999V127.8C521.45 138.7 512.65 147.5 501.75 147.5H343.25C332.35 147.5 323.55 138.7 323.55 127.8V38.5999C323.55 27.6999 332.35 18.8999 343.25 18.8999Z" fill="#828286" stroke="black" stroke-width="2.4453"/>
<path d="M343.25 20.1001H501.75C511.95 20.1001 520.25 28.4001 520.25 38.6001V125.8C520.25 136 511.95 144.3 501.75 144.3H343.25C333.05 144.3 324.75 136 324.75 125.8V38.6001C324.75 28.4001 333.05 20.1001 343.25 20.1001Z" fill="#C4C4C4"/>
<path d="M329.35 34.7C329.35 29.3 333.65 25 339.05 25H505.95C511.25 25 515.65 29.3 515.65 34.7V129.9C515.65 135.3 511.35 139.6 505.95 139.6H339.05C333.65 139.6 329.35 135.3 329.35 129.9V34.7Z" fill="#192228"/>
<path fill-rule="evenodd" clip-rule="evenodd" d="M328.45 34.7C328.45 28.8 333.25 24 339.15 24H506.05C511.95 24 516.75 28.8 516.75 34.7V129.9C516.75 135.8 511.95 140.6 506.05 140.6H339.05C333.15 140.6 328.35 135.8 328.35 129.9V34.7H328.45ZM339.05 25.9C334.25 25.9 330.35 29.8 330.35 34.6V129.8C330.35 134.6 334.25 138.5 339.05 138.5H505.95C510.75 138.5 514.65 134.6 514.65 129.8V34.7C514.65 29.9 510.75 26 505.95 26H339.05V25.9Z" fill="black"/>
<g opacity="0.6">
<path opacity="0.6" d="M465.65 134.4H422.05V132.9V79H488.15V131.7C488.15 131.7 488.25 134.3 485.75 134.3C482.05 134.3 465.65 134.4 465.65 134.4Z" fill="#2A3B47"/>
<path opacity="0.6" fill-rule="evenodd" clip-rule="evenodd" d="M421.65 78.8999C421.65 78.5999 421.85 78.3999 422.15 78.3999H488.25C488.55 78.3999 488.75 78.5999 488.75 78.8999V131.7V131.8C488.75 131.9 488.75 132 488.75 132.1C488.75 132.4 488.65 132.8 488.45 133.2C488.25 133.6 488.05 134 487.55 134.3C487.15 134.6 486.55 134.8 485.85 134.8C483.95 134.8 478.95 134.8 474.35 134.8C472.05 134.8 469.95 134.8 468.35 134.8C467.55 134.8 466.95 134.8 466.45 134.8H465.75C465.75 134.8 465.75 134.8 465.75 134.3V134.8H422.15C421.85 134.8 421.65 134.6 421.65 134.3V78.8999ZM465.65 133.8H466.35C466.85 133.8 467.45 133.8 468.25 133.8C469.85 133.8 472.05 133.8 474.25 133.8C478.85 133.8 483.85 133.8 485.75 133.8C486.25 133.8 486.65 133.7 486.85 133.5C487.05 133.3 487.25 133.1 487.35 132.8C487.45 132.5 487.55 132.2 487.55 132C487.55 131.9 487.55 131.8 487.55 131.7V131.6V79.2999H422.45V133.7H465.65V133.8Z" fill="black"/>
<path opacity="0.6" d="M422.15 78.8999V134.3H419.15C417.75 134.3 417.65 132.8 417.65 132.8V78.8999H422.15Z" fill="#3D5567"/>
<path opacity="0.6" fill-rule="evenodd" clip-rule="evenodd" d="M417.15 78.8999C417.15 78.5999 417.35 78.3999 417.65 78.3999H422.15C422.45 78.3999 422.65 78.5999 422.65 78.8999V134.3C422.65 134.6 422.45 134.8 422.15 134.8H419.15C418.25 134.8 417.65 134.3 417.45 133.8C417.35 133.6 417.25 133.3 417.25 133.2C417.25 133.1 417.25 133 417.25 133C417.25 133 417.25 133 417.25 132.9C417.25 132.9 417.25 132.9 417.75 132.9H417.25V78.8999H417.15ZM418.15 132.8V132.9C418.15 133 418.25 133.1 418.25 133.3C418.35 133.5 418.65 133.8 419.05 133.8H421.55V79.3999H418.05V132.8H418.15Z" fill="black"/>
<path opacity="0.6" d="M488.15 78.8999H422.05H417.55V75.8999C417.55 74.1999 418.85 72.8999 420.55 72.8999H485.15C486.85 72.8999 488.15 74.1999 488.15 75.8999V78.8999Z" fill="#1B252D"/>
<path opacity="0.6" fill-rule="evenodd" clip-rule="evenodd" d="M420.65 73.3999C419.25 73.3999 418.15 74.4999 418.15 75.8999V78.3999H487.75V75.8999C487.75 74.4999 486.65 73.3999 485.25 73.3999H420.65ZM417.15 75.8999C417.15 73.9999 418.75 72.3999 420.65 72.3999H485.25C487.25 72.3999 488.75 73.9999 488.75 75.8999V78.8999C488.75 79.1999 488.55 79.3999 488.25 79.3999H417.65C417.35 79.3999 417.15 79.1999 417.15 78.8999V75.8999Z" fill="black"/>
<path opacity="0.6" d="M456.65 86.3999H428.05C427.25 86.3999 426.55 85.6999 426.55 84.8999C426.55 84.0999 427.25 83.3999 428.05 83.3999H456.65C457.45 83.3999 458.15 84.0999 458.15 84.8999C458.15 85.6999 457.55 86.3999 456.65 86.3999Z" fill="#66D1FF"/>
<path opacity="0.6" d="M461.15 92.3999H431.05C430.25 92.3999 429.55 91.6999 429.55 90.8999C429.55 90.0999 430.25 89.3999 431.05 89.3999H461.15C461.95 89.3999 462.65 90.0999 462.65 90.8999C462.65 91.6999 462.05 92.3999 461.15 92.3999Z" fill="#51E199"/>
<path opacity="0.6" d="M452.15 122.4H431.15C430.35 122.4 429.65 121.7 429.65 120.9C429.65 120.1 430.35 119.4 431.15 119.4H452.15C452.95 119.4 453.65 120.1 453.65 120.9C453.65 121.7 453.05 122.4 452.15 122.4Z" fill="#51E199"/>
<path opacity="0.6" d="M470.25 92.3999H467.25C466.45 92.3999 465.75 91.6999 465.75 90.8999C465.75 90.0999 466.45 89.3999 467.25 89.3999H470.25C471.05 89.3999 471.75 90.0999 471.75 90.8999C471.75 91.6999 471.05 92.3999 470.25 92.3999Z" fill="#51E199"/>
<path opacity="0.6" d="M437.15 128.4H428.15C427.35 128.4 426.65 127.7 426.65 126.9C426.65 126.1 427.35 125.4 428.15 125.4H437.15C437.95 125.4 438.65 126.1 438.65 126.9C438.65 127.7 437.95 128.4 437.15 128.4Z" fill="#66D1FF"/>
<path opacity="0.6" d="M477.75 98.3999H446.15C445.35 98.3999 444.65 97.6999 444.65 96.8999C444.65 96.0999 445.35 95.3999 446.15 95.3999H477.75C478.55 95.3999 479.25 96.0999 479.25 96.8999C479.25 97.6999 478.55 98.3999 477.75 98.3999Z" fill="#EB5757"/>
<path opacity="0.6" d="M453.65 104.4H434.15C433.35 104.4 432.65 103.7 432.65 102.9C432.65 102.1 433.35 101.4 434.15 101.4H453.65C454.45 101.4 455.15 102.1 455.15 102.9C455.15 103.7 454.55 104.4 453.65 104.4Z" fill="#FFC757"/>
<path opacity="0.6" d="M465.75 116.4H434.15C433.35 116.4 432.65 115.7 432.65 114.9C432.65 114.1 433.35 113.4 434.15 113.4H465.75C466.55 113.4 467.25 114.1 467.25 114.9C467.25 115.7 466.55 116.4 465.75 116.4Z" fill="#EB5757"/>
<path opacity="0.6" d="M465.75 110.4H444.75C443.95 110.4 443.25 109.7 443.25 108.9C443.25 108.1 443.95 107.4 444.75 107.4H465.75C466.55 107.4 467.25 108.1 467.25 108.9C467.25 109.7 466.55 110.4 465.75 110.4Z" fill="#FFC757"/>
<path opacity="0.6" d="M438.65 110.4H434.15C433.35 110.4 432.65 109.7 432.65 108.9C432.65 108.1 433.35 107.4 434.15 107.4H438.65C439.45 107.4 440.15 108.1 440.15 108.9C440.15 109.7 439.45 110.4 438.65 110.4Z" fill="#FFC757"/>
<path opacity="0.6" d="M440.15 98.3999H434.15C433.35 98.3999 432.65 97.6999 432.65 96.8999C432.65 96.0999 433.35 95.3999 434.15 95.3999H440.15C440.95 95.3999 441.65 96.0999 441.65 96.8999C441.65 97.6999 440.95 98.3999 440.15 98.3999Z" fill="#EB5757"/>
<path opacity="0.6" d="M422.15 77.3999C421.35 77.3999 420.65 76.6999 420.65 75.8999C420.65 75.0999 421.35 74.3999 422.15 74.3999C422.95 74.3999 423.65 75.0999 423.65 75.8999C423.65 76.6999 422.95 77.3999 422.15 77.3999Z" fill="#FFC757"/>
<path opacity="0.6" d="M426.65 77.3999C425.85 77.3999 425.15 76.6999 425.15 75.8999C425.15 75.0999 425.85 74.3999 426.65 74.3999C427.45 74.3999 428.15 75.0999 428.15 75.8999C428.15 76.6999 427.55 77.3999 426.65 77.3999Z" fill="#2CD37F"/>
<path opacity="0.6" d="M431.15 77.3999C430.35 77.3999 429.65 76.6999 429.65 75.8999C429.65 75.0999 430.35 74.3999 431.15 74.3999C431.95 74.3999 432.65 75.0999 432.65 75.8999C432.65 76.6999 432.05 77.3999 431.15 77.3999Z" fill="#EB5757"/>
</g>
<g opacity="0.6">
<path opacity="0.6" d="M399.65 132.5H356.05V131V77.1001H422.15V129.9C422.15 129.9 422.25 132.5 419.75 132.5C415.95 132.5 399.65 132.5 399.65 132.5Z" fill="#2A3B47"/>
<path opacity="0.6" fill-rule="evenodd" clip-rule="evenodd" d="M355.55 77C355.55 76.7 355.75 76.5 356.05 76.5H422.15C422.45 76.5 422.65 76.7 422.65 77V129.8V129.9C422.65 130 422.65 130.1 422.65 130.2C422.65 130.5 422.55 130.9 422.35 131.3C422.15 131.7 421.95 132.1 421.45 132.4C421.05 132.7 420.45 132.9 419.75 132.9C417.85 132.9 412.85 132.9 408.25 132.9C405.95 132.9 403.85 132.9 402.25 132.9C401.45 132.9 400.85 132.9 400.35 132.9H399.65C399.65 132.9 399.65 132.9 399.65 132.4V132.9H356.05C355.75 132.9 355.55 132.7 355.55 132.4V77ZM399.65 132H400.35C400.85 132 401.45 132 402.25 132C403.85 132 405.95 132 408.25 132C412.85 132 417.85 132 419.75 132C420.25 132 420.65 131.9 420.85 131.7C421.15 131.5 421.25 131.3 421.35 131C421.45 130.7 421.55 130.5 421.55 130.2C421.55 130.1 421.55 130 421.55 129.9V129.8V77.5H356.45V131.9H399.65V132Z" fill="black"/>
<path opacity="0.6" d="M356.05 77V132.4H353.05C351.65 132.4 351.55 130.9 351.55 130.9V77H356.05Z" fill="#3D5567"/>
<path opacity="0.6" fill-rule="evenodd" clip-rule="evenodd" d="M351.05 77C351.05 76.7 351.25 76.5 351.55 76.5H356.05C356.35 76.5 356.55 76.7 356.55 77V132.4C356.55 132.7 356.35 132.9 356.05 132.9H353.05C352.15 132.9 351.55 132.4 351.35 131.9C351.25 131.7 351.15 131.4 351.15 131.3C351.15 131.2 351.15 131.1 351.15 131.1C351.15 131.1 351.15 131.1 351.15 131C351.15 131 351.15 131 351.65 131H351.15V77H351.05ZM352.05 131V131.1C352.05 131.2 352.15 131.3 352.15 131.5C352.25 131.7 352.55 132 352.95 132H355.45V77.6H351.95V131H352.05Z" fill="black"/>
<path opacity="0.6" d="M422.15 77H356.05H351.55V74C351.55 72.3 352.85 71 354.55 71H419.15C420.85 71 422.15 72.3 422.15 74V77Z" fill="#1B252D"/>
<path opacity="0.6" fill-rule="evenodd" clip-rule="evenodd" d="M354.55 71.6C353.15 71.6 352.05 72.7 352.05 74.1V76.6H421.65V74.1C421.65 72.7 420.55 71.6 419.15 71.6H354.55ZM351.05 74C351.05 72.1 352.65 70.5 354.55 70.5H419.15C421.05 70.5 422.65 72.1 422.65 74V77C422.65 77.3 422.45 77.5 422.15 77.5H351.55C351.25 77.5 351.05 77.3 351.05 77V74Z" fill="black"/>
<path opacity="0.6" d="M390.55 84.5H361.95C361.15 84.5 360.45 83.8 360.45 83C360.45 82.2 361.15 81.5 361.95 81.5H390.55C391.35 81.5 392.05 82.2 392.05 83C392.15 83.8 391.45 84.5 390.55 84.5Z" fill="#66D1FF"/>
<path opacity="0.6" d="M395.15 90.5H365.05C364.25 90.5 363.55 89.8 363.55 89C363.55 88.2 364.25 87.5 365.05 87.5H395.15C395.95 87.5 396.65 88.2 396.65 89C396.65 89.8 395.95 90.5 395.15 90.5Z" fill="#51E199"/>
<path opacity="0.6" d="M386.05 120.5H364.95C364.15 120.5 363.45 119.8 363.45 119C363.45 118.2 364.15 117.5 364.95 117.5H386.05C386.85 117.5 387.55 118.2 387.55 119C387.55 119.8 386.95 120.5 386.05 120.5Z" fill="#51E199"/>
<path opacity="0.6" d="M404.15 90.5H401.15C400.35 90.5 399.65 89.8 399.65 89C399.65 88.2 400.35 87.5 401.15 87.5H404.15C404.95 87.5 405.65 88.2 405.65 89C405.65 89.8 404.95 90.5 404.15 90.5Z" fill="#51E199"/>
<path opacity="0.6" d="M371.05 126.5H362.05C361.25 126.5 360.55 125.8 360.55 125C360.55 124.2 361.25 123.5 362.05 123.5H371.05C371.85 123.5 372.55 124.2 372.55 125C372.55 125.8 371.85 126.5 371.05 126.5Z" fill="#66D1FF"/>
<path opacity="0.6" d="M411.65 96.5H380.05C379.25 96.5 378.55 95.8 378.55 95C378.55 94.2 379.25 93.5 380.05 93.5H411.65C412.45 93.5 413.15 94.2 413.15 95C413.15 95.8 412.45 96.5 411.65 96.5Z" fill="#EB5757"/>
<path opacity="0.6" d="M387.55 102.5H368.05C367.25 102.5 366.55 101.8 366.55 101C366.55 100.2 367.25 99.5 368.05 99.5H387.55C388.35 99.5 389.05 100.2 389.05 101C389.05 101.8 388.45 102.5 387.55 102.5Z" fill="#FFC757"/>
<path opacity="0.6" d="M399.65 114.5H368.05C367.25 114.5 366.55 113.8 366.55 113C366.55 112.2 367.25 111.5 368.05 111.5H399.65C400.45 111.5 401.15 112.2 401.15 113C401.15 113.8 400.45 114.5 399.65 114.5Z" fill="#EB5757"/>
<path opacity="0.6" d="M399.65 108.5H378.65C377.85 108.5 377.15 107.8 377.15 107C377.15 106.2 377.85 105.5 378.65 105.5H399.65C400.45 105.5 401.15 106.2 401.15 107C401.15 107.8 400.45 108.5 399.65 108.5Z" fill="#FFC757"/>
<path opacity="0.6" d="M372.55 108.5H368.05C367.25 108.5 366.55 107.8 366.55 107C366.55 106.2 367.25 105.5 368.05 105.5H372.55C373.35 105.5 374.05 106.2 374.05 107C374.05 107.8 373.35 108.5 372.55 108.5Z" fill="#FFC757"/>
<path opacity="0.6" d="M374.05 96.5H368.05C367.25 96.5 366.55 95.8 366.55 95C366.55 94.2 367.25 93.5 368.05 93.5H374.05C374.85 93.5 375.55 94.2 375.55 95C375.55 95.8 374.85 96.5 374.05 96.5Z" fill="#EB5757"/>
<path opacity="0.6" d="M356.05 75.5C355.25 75.5 354.55 74.8 354.55 74C354.55 73.2 355.25 72.5 356.05 72.5C356.85 72.5 357.55 73.2 357.55 74C357.55 74.8 356.85 75.5 356.05 75.5Z" fill="#FFC757"/>
<path opacity="0.6" d="M360.55 75.5C359.75 75.5 359.05 74.8 359.05 74C359.05 73.2 359.75 72.5 360.55 72.5C361.35 72.5 362.05 73.2 362.05 74C362.05 74.8 361.45 75.5 360.55 75.5Z" fill="#2CD37F"/>
<path opacity="0.6" d="M365.05 75.5C364.25 75.5 363.55 74.8 363.55 74C363.55 73.2 364.25 72.5 365.05 72.5C365.85 72.5 366.55 73.2 366.55 74C366.55 74.8 365.95 75.5 365.05 75.5Z" fill="#EB5757"/>
</g>
<path d="M366.05 89.3999H303.15V87.1999V9.3999H398.45V85.5999C398.45 85.5999 398.55 89.3999 395.05 89.3999C389.55 89.3999 366.05 89.3999 366.05 89.3999Z" fill="#2A3B47"/>
<path fill-rule="evenodd" clip-rule="evenodd" d="M302.45 9.50005C302.45 9.10005 302.75 8.80005 303.15 8.80005H398.45C398.85 8.80005 399.15 9.10005 399.15 9.50005V85.7001V85.8001C399.15 85.9001 399.15 86.1001 399.15 86.3001C399.15 86.7001 398.95 87.3001 398.75 87.8001C398.55 88.4001 398.15 89 397.45 89.4C396.85 89.9 396.05 90.1 394.95 90.1C392.25 90.1 384.95 90.1 378.35 90.1C375.05 90.1 371.95 90.1 369.65 90.1C368.55 90.1 367.55 90.1 366.95 90.1H365.95C365.95 90.1 365.95 90.1 365.95 89.4V90.1H303.05C302.65 90.1 302.35 89.8 302.35 89.4V9.50005H302.45ZM366.05 88.7001H367.05C367.75 88.7001 368.65 88.7001 369.75 88.7001C372.05 88.7001 375.15 88.7001 378.45 88.7001C385.05 88.7001 392.25 88.7001 395.05 88.7001C395.75 88.7001 396.35 88.5001 396.65 88.3001C397.05 88.0001 397.25 87.7001 397.45 87.3001C397.65 86.9001 397.75 86.5001 397.75 86.2001C397.75 86.0001 397.75 85.9001 397.75 85.8001V85.7001V10.3H303.95V88.7001H366.05Z" fill="black"/>
<path d="M303.25 9.5V89.5H298.95C296.95 89.5 296.75 87.3 296.75 87.3V9.5H303.25Z" fill="#3D5567"/>
<path fill-rule="evenodd" clip-rule="evenodd" d="M296.05 9.50005C296.05 9.10005 296.35 8.80005 296.75 8.80005H303.25C303.65 8.80005 303.95 9.10005 303.95 9.50005V89.5001C303.95 89.9001 303.65 90.2001 303.25 90.2001H298.95C297.55 90.2001 296.85 89.5001 296.45 88.7001C296.25 88.4 296.15 88.0001 296.15 87.8001C296.15 87.7001 296.15 87.6001 296.05 87.5001V87.4C296.05 87.4 296.05 87.4 296.75 87.4H296.05V9.50005ZM297.45 87.3001C297.45 87.4001 297.45 87.4001 297.45 87.5001C297.45 87.7001 297.55 87.9001 297.65 88.0001C297.85 88.4001 298.15 88.7001 298.85 88.7001H302.45V10.2001H297.45V87.3001Z" fill="black"/>
<path d="M398.55 9.49991H303.25H296.75V5.19991C296.75 2.79991 298.65 0.899902 301.05 0.899902H394.25C396.65 0.899902 398.55 2.79991 398.55 5.19991V9.49991Z" fill="#1B252D"/>
<path fill-rule="evenodd" clip-rule="evenodd" d="M301.05 1.6C299.05 1.6 297.45 3.2 297.45 5.2V8.8H397.75V5.2C397.75 3.2 396.15 1.6 394.15 1.6H301.05ZM295.95 5.1C295.95 2.3 298.25 0 301.05 0H394.25C397.05 0 399.35 2.3 399.35 5.1V9.39999C399.35 9.79999 399.05 10.1 398.65 10.1H296.75C296.35 10.1 296.05 9.79999 296.05 9.39999V5.1H295.95Z" fill="black"/>
<path d="M353.05 20.2999H311.85C310.65 20.2999 309.65 19.2999 309.65 18.0999C309.65 16.8999 310.65 15.8999 311.85 15.8999H353.05C354.25 15.8999 355.25 16.8999 355.25 18.0999C355.25 19.2999 354.25 20.2999 353.05 20.2999Z" fill="#66D1FF"/>
<path d="M359.55 28.9H316.15C314.95 28.9 313.95 27.9 313.95 26.7C313.95 25.5 314.95 24.5 316.15 24.5H359.55C360.75 24.5 361.75 25.5 361.75 26.7C361.75 27.9 360.75 28.9 359.55 28.9Z" fill="#51E199"/>
<path d="M346.55 72.2H316.15C314.95 72.2 313.95 71.2 313.95 70C313.95 68.8 314.95 67.8 316.15 67.8H346.55C347.75 67.8 348.75 68.8 348.75 70C348.75 71.2 347.75 72.2 346.55 72.2Z" fill="#51E199"/>
<path d="M372.55 28.9H368.25C367.05 28.9 366.05 27.9 366.05 26.7C366.05 25.5 367.05 24.5 368.25 24.5H372.55C373.75 24.5 374.75 25.5 374.75 26.7C374.75 27.9 373.75 28.9 372.55 28.9Z" fill="#51E199"/>
<path d="M324.85 80.7999H311.85C310.65 80.7999 309.65 79.7999 309.65 78.5999C309.65 77.3999 310.65 76.3999 311.85 76.3999H324.85C326.05 76.3999 327.05 77.3999 327.05 78.5999C327.05 79.7999 326.05 80.7999 324.85 80.7999Z" fill="#66D1FF"/>
<path d="M383.45 37.5999H337.95C336.75 37.5999 335.75 36.5999 335.75 35.3999C335.75 34.1999 336.75 33.2 337.95 33.2H383.45C384.65 33.2 385.65 34.1999 385.65 35.3999C385.65 36.5999 384.65 37.5999 383.45 37.5999Z" fill="#EB5757"/>
<path d="M348.75 46.2H320.55C319.35 46.2 318.35 45.2 318.35 44C318.35 42.8 319.35 41.8 320.55 41.8H348.75C349.95 41.8 350.95 42.8 350.95 44C350.95 45.2 349.95 46.2 348.75 46.2Z" fill="#FFC757"/>
<path d="M366.05 63.5001H320.45C319.25 63.5001 318.25 62.5001 318.25 61.3001C318.25 60.1001 319.25 59.1001 320.45 59.1001H366.05C367.25 59.1001 368.25 60.1001 368.25 61.3001C368.25 62.5001 367.25 63.5001 366.05 63.5001Z" fill="#EB5757"/>
<path d="M366.15 54.7999H335.75C334.55 54.7999 333.55 53.7999 333.55 52.5999C333.55 51.3999 334.55 50.3999 335.75 50.3999H366.15C367.35 50.3999 368.35 51.3999 368.35 52.5999C368.25 53.8999 367.35 54.7999 366.15 54.7999Z" fill="#FFC757"/>
<path d="M327.05 54.7999H320.55C319.35 54.7999 318.35 53.7999 318.35 52.5999C318.35 51.3999 319.35 50.3999 320.55 50.3999H327.05C328.25 50.3999 329.25 51.3999 329.25 52.5999C329.25 53.8999 328.25 54.7999 327.05 54.7999Z" fill="#FFC757"/>
<path d="M329.25 37.5999H320.55C319.35 37.5999 318.35 36.5999 318.35 35.3999C318.35 34.1999 319.35 33.2 320.55 33.2H329.25C330.45 33.2 331.45 34.1999 331.45 35.3999C331.35 36.5999 330.45 37.5999 329.25 37.5999Z" fill="#EB5757"/>
<path d="M303.25 7.2999C302.05 7.2999 301.05 6.29991 301.05 5.09991C301.05 3.89991 302.05 2.8999 303.25 2.8999C304.45 2.8999 305.45 3.89991 305.45 5.09991C305.45 6.29991 304.45 7.2999 303.25 7.2999Z" fill="#FFC757"/>
<path d="M309.75 7.2999C308.55 7.2999 307.55 6.29991 307.55 5.09991C307.55 3.89991 308.55 2.8999 309.75 2.8999C310.95 2.8999 311.95 3.89991 311.95 5.09991C311.95 6.29991 310.95 7.2999 309.75 7.2999Z" fill="#2CD37F"/>
<path d="M316.25 7.2999C315.05 7.2999 314.05 6.29991 314.05 5.09991C314.05 3.89991 315.05 2.8999 316.25 2.8999C317.45 2.8999 318.45 3.89991 318.45 5.09991C318.45 6.29991 317.45 7.2999 316.25 7.2999Z" fill="#EB5757"/>
<path d="M511.75 89.5H449.35V87.3999V10.2H543.95V85.7C543.95 85.7 544.05 89.5 540.55 89.5C535.15 89.5 511.75 89.5 511.75 89.5Z" fill="#2A3B47"/>
<path fill-rule="evenodd" clip-rule="evenodd" d="M448.65 10.0999C448.65 9.69991 448.95 9.3999 449.35 9.3999H543.95C544.35 9.3999 544.65 9.69991 544.65 10.0999V85.6999V85.7999C544.65 85.8999 544.65 86.0999 544.65 86.2999C544.65 86.6999 544.55 87.1999 544.25 87.7999C543.95 88.3999 543.65 88.9999 542.95 89.3999C542.35 89.8999 541.55 90.0999 540.45 90.0999C537.75 90.0999 530.55 90.0999 523.95 90.0999C520.65 90.0999 517.65 90.0999 515.35 90.0999C514.25 90.0999 513.25 90.0999 512.65 90.0999H511.65C511.65 90.0999 511.65 90.0999 511.65 89.3999V90.0999H449.25C448.85 90.0999 448.55 89.7999 448.55 89.3999V10.0999H448.65ZM511.75 88.7999H512.75C513.35 88.7999 514.35 88.7999 515.45 88.7999C517.75 88.7999 520.85 88.7999 524.05 88.7999C530.55 88.7999 537.75 88.7999 540.55 88.7999C541.35 88.7999 541.75 88.5999 542.15 88.3999C542.55 88.0999 542.75 87.7999 542.95 87.3999C543.15 86.9999 543.25 86.5999 543.25 86.2999C543.25 86.0999 543.25 85.9999 543.25 85.8999V85.7999V10.8999H450.05V88.7999H511.75Z" fill="black"/>
<path d="M449.35 10.1001V89.5001H445.05C443.05 89.5001 442.85 87.4001 442.85 87.4001V10.2001H449.35V10.1001Z" fill="#3D5567"/>
<path fill-rule="evenodd" clip-rule="evenodd" d="M442.25 10.0999C442.25 9.69991 442.55 9.3999 442.95 9.3999H449.35C449.75 9.3999 450.05 9.69991 450.05 10.0999V89.4999C450.05 89.8999 449.75 90.1999 449.35 90.1999H445.05C443.65 90.1999 442.95 89.4999 442.55 88.6999C442.35 88.3999 442.25 87.9999 442.25 87.7999C442.25 87.6999 442.25 87.5999 442.25 87.4999V87.3999C442.25 87.3999 442.25 87.3999 442.95 87.3999H442.25V10.0999ZM443.65 87.2999C443.65 87.3999 443.65 87.3999 443.65 87.4999C443.65 87.6999 443.75 87.8999 443.85 87.9999C444.05 88.3999 444.35 88.6999 445.05 88.6999H448.55V10.7999H443.55V87.2999H443.65Z" fill="black"/>
<path d="M543.95 10.1H449.35H442.95V5.8C442.95 3.4 444.85 1.5 447.25 1.5H539.75C542.15 1.5 544.05 3.4 544.05 5.8V10.1H543.95Z" fill="#1B252D"/>
<path fill-rule="evenodd" clip-rule="evenodd" d="M447.25 2.30005C445.25 2.30005 443.65 3.90005 443.65 5.90005V9.50005H543.25V5.90005C543.25 3.90005 541.65 2.30005 539.65 2.30005H447.25ZM442.15 5.80005C442.15 3.00005 444.35 0.800049 447.15 0.800049H539.65C542.45 0.800049 544.65 3.00005 544.65 5.80005V10.1001C544.65 10.5001 544.35 10.8 543.95 10.8H442.85C442.45 10.8 442.15 10.5001 442.15 10.1001V5.80005Z" fill="black"/>
<path d="M498.85 20.8001H457.95C456.75 20.8001 455.75 19.8001 455.75 18.7001C455.75 17.5001 456.75 16.6001 457.95 16.6001H498.85C500.05 16.6001 501.05 17.6001 501.05 18.7001C501.05 19.9001 500.05 20.8001 498.85 20.8001Z" fill="#66D1FF"/>
<path d="M505.35 29.3999H462.35C461.15 29.3999 460.15 28.4 460.15 27.3C460.15 26.2 461.15 25.2 462.35 25.2H505.35C506.55 25.2 507.55 26.2 507.55 27.3C507.55 28.4 506.55 29.3999 505.35 29.3999Z" fill="#51E199"/>
<path d="M492.45 72.3999H462.35C461.15 72.3999 460.15 71.4 460.15 70.3C460.15 69.1 461.15 68.2 462.35 68.2H492.45C493.65 68.2 494.55 69.2 494.55 70.3C494.55 71.4 493.65 72.3999 492.45 72.3999Z" fill="#51E199"/>
<path d="M518.25 29.3999H513.95C512.75 29.3999 511.85 28.4 511.85 27.3C511.85 26.2 512.85 25.2 513.95 25.2H518.25C519.45 25.2 520.45 26.2 520.45 27.3C520.45 28.4 519.45 29.3999 518.25 29.3999Z" fill="#51E199"/>
<path d="M470.85 80.8999H457.95C456.75 80.8999 455.75 79.9 455.75 78.8C455.75 77.6 456.75 76.7 457.95 76.7H470.85C472.05 76.7 473.05 77.7 473.05 78.8C473.05 80 472.05 80.8999 470.85 80.8999Z" fill="#66D1FF"/>
<path d="M529.05 38H483.85C482.65 38 481.65 37 481.65 35.9C481.65 34.8 482.65 33.8 483.85 33.8H529.05C530.25 33.8 531.15 34.8 531.15 35.9C531.15 37 530.25 38 529.05 38Z" fill="#EB5757"/>
<path d="M494.55 46.5999H466.55C465.35 46.5999 464.35 45.5999 464.35 44.4999C464.35 43.3999 465.35 42.3999 466.55 42.3999H494.55C495.75 42.3999 496.75 43.3999 496.75 44.4999C496.75 45.5999 495.75 46.5999 494.55 46.5999Z" fill="#FFC757"/>
<path d="M511.75 63.8001H466.55C465.35 63.8001 464.35 62.8001 464.35 61.7001C464.35 60.5001 465.35 59.6001 466.55 59.6001H511.75C512.95 59.6001 513.95 60.6001 513.95 61.7001C513.95 62.8001 512.95 63.8001 511.75 63.8001Z" fill="#EB5757"/>
<path d="M511.85 55.2H481.75C480.55 55.2 479.55 54.2 479.55 53.1C479.55 51.9 480.55 51 481.75 51H511.85C513.05 51 514.05 52 514.05 53.1C513.95 54.2 513.05 55.2 511.85 55.2Z" fill="#FFC757"/>
<path d="M473.05 55.2H466.55C465.35 55.2 464.35 54.2 464.35 53.1C464.35 51.9 465.35 51 466.55 51H473.05C474.25 51 475.15 52 475.15 53.1C475.15 54.2 474.25 55.2 473.05 55.2Z" fill="#FFC757"/>
<path d="M475.15 38H466.55C465.35 38 464.35 37 464.35 35.9C464.35 34.8 465.35 33.8 466.55 33.8H475.15C476.35 33.8 477.35 34.8 477.35 35.9C477.35 37 476.35 38 475.15 38Z" fill="#EB5757"/>
<path d="M449.45 8.00005C448.25 8.00005 447.25 7.00005 447.25 5.90005C447.25 4.70005 448.25 3.80005 449.35 3.80005C450.55 3.80005 451.55 4.80005 451.55 5.90005C451.55 7.00005 450.65 8.00005 449.45 8.00005Z" fill="#FFC757"/>
<path d="M455.85 8.00005C454.65 8.00005 453.65 7.00005 453.65 5.90005C453.65 4.70005 454.55 3.80005 455.75 3.80005C456.95 3.80005 457.95 4.80005 457.95 5.90005C458.05 7.00005 457.05 8.00005 455.85 8.00005Z" fill="#2CD37F"/>
<path d="M462.35 8.00005C461.15 8.00005 460.15 7.00005 460.15 5.90005C460.15 4.70005 461.15 3.80005 462.25 3.80005C463.45 3.80005 464.45 4.80005 464.45 5.90005C464.45 7.00005 463.55 8.00005 462.35 8.00005Z" fill="#EB5757"/>
<path d="M417.95 170.9C417.95 170.4 418.45 170 418.95 170H453.45C454.05 170 454.65 170 455.35 170.1L417.95 170.9ZM417.95 170.9V196.4C417.95 196.9 418.45 197.3 418.95 197.3H446.15L436.55 253.6C436.55 253.9 436.55 254.1 436.75 254.4C436.95 254.6 437.25 254.7 437.55 254.7H457.85C458.35 254.7 458.75 254.4 458.85 254L472.95 193.5C475.85 182.4 467.65 171.2 455.25 170L417.95 170.9Z" fill="#094977" stroke="black" stroke-width="2.0368" stroke-linejoin="round"/>
<path d="M420.95 169.9C421.55 169.9 421.95 170.3 421.95 170.8V196.7C421.95 197.2 421.55 197.6 420.95 197.6H393.75L403.35 254.5C403.35 254.8 403.35 255.1 403.15 255.3C402.95 255.5 402.65 255.6 402.35 255.6H382.05C381.55 255.6 381.15 255.3 381.05 254.9L366.85 193.8C363.95 182.6 372.15 171.3 384.55 170.1L420.95 169.9ZM420.95 169.9H386.45H420.95ZM420.95 169.9H386.45H420.95ZM386.45 169.9C385.85 169.9 385.25 169.9 384.55 170L386.45 169.9Z" fill="#094977" stroke="black" stroke-width="2.0368" stroke-linejoin="round"/>
<g opacity="0.3">
<path opacity="0.3" d="M449.75 252.5C449.85 252.3 449.85 252.1 449.95 251.9C452.25 244.8 454.55 227.7 456.75 220.6C459.05 212.9 461.25 205.2 462.95 197.4C463.25 195.8 463.55 194.2 463.85 192.6C463.95 191.9 464.05 191.4 464.05 191.2C464.15 190.4 464.25 189.5 464.35 188.7C464.35 188.5 464.35 188.3 464.45 188.1H419.25V195.3H447.65L437.95 252.7L449.75 252.5Z" fill="black"/>
</g>
<g opacity="0.3">
<path opacity="0.3" d="M420.95 189.6H377.55C377.75 190.4 377.95 191.2 378.15 192.1C380.05 199.1 382.55 205.9 384.95 212.7C387.35 219.4 389.85 226 391.65 232.8C392.75 236.8 393.55 250.8 394.65 254.8H402.25L392.55 196.8H420.95V189.6Z" fill="black"/>
</g>
<path d="M436.65 244.8H454.45C454.45 244.8 473.45 246.5 473.45 258.4H436.65V244.8Z" fill="#642A17"/>
<path fill-rule="evenodd" clip-rule="evenodd" d="M454.65 243.2L454.45 244.8H436.65V258.4H473.45C473.45 257.8 473.45 257.3 473.35 256.8C471.75 246.3 454.45 244.8 454.45 244.8C454.65 243.2 454.65 243.2 454.65 243.2C454.75 243.2 454.85 243.2 454.95 243.2C455.15 243.2 455.35 243.2 455.55 243.3C456.05 243.4 456.85 243.5 457.85 243.7C459.75 244.1 462.15 244.7 464.75 245.7C469.65 247.7 475.25 251.5 475.25 258.5C475.25 259.4 474.45 260.1 473.55 260.1H436.75C435.85 260.1 435.05 259.4 435.05 258.5V244.9C435.05 244 435.85 243.3 436.75 243.3H454.55C454.55 243.2 454.65 243.2 454.65 243.2Z" fill="black"/>
<path d="M403.65 244.6H385.35C385.35 244.6 365.85 246.3 365.85 258.2H403.55L403.65 244.6Z" fill="#642A17"/>
<path fill-rule="evenodd" clip-rule="evenodd" d="M385.25 243C385.35 243 385.35 243 385.45 243H403.75C404.75 243 405.45 243.7 405.45 244.6V258.2C405.45 259.1 404.65 259.8 403.75 259.8H366.05C365.05 259.8 364.35 259.1 364.35 258.2C364.35 251.2 370.05 247.4 375.15 245.4C377.75 244.4 380.25 243.8 382.15 243.4C383.15 243.2 383.85 243.1 384.45 243C384.75 243 384.95 242.9 385.15 242.9C385.05 243 385.15 243 385.25 243C385.25 243 385.25 243 385.45 244.6C385.45 244.6 367.75 246.1 366.15 256.6C366.05 257.1 366.05 257.7 366.05 258.2H403.75V244.6H385.45L385.25 243Z" fill="black"/>
<path d="M400.05 55.8999C400.05 55.8999 395.75 49.0999 390.75 52.7999C385.85 56.4999 391.05 69.9999 400.05 67.7999V55.8999Z" fill="#EDAC7C"/>
<path d="M400.05 60.4001V66.5001C392.35 67.1001 389.15 56.2001 392.75 55.1001C395.65 54.3001 398.75 58.3001 400.05 60.4001Z" fill="#F7A588"/>
<path d="M391.25 57.1999C391.25 57.1999 391.25 57.1999 391.25 57.0999C391.25 56.9999 391.35 56.8999 391.45 56.6999C391.55 56.3999 391.85 55.9999 392.25 55.6999C392.35 55.5999 392.45 55.5999 392.55 55.4999C392.65 55.4999 392.65 55.4999 392.75 55.3999H392.85C392.95 55.3999 393.05 55.3999 393.05 55.3999C393.15 55.3999 393.15 55.3999 393.25 55.3999C393.35 55.3999 393.35 55.3999 393.45 55.3999C393.55 55.3999 393.65 55.3999 393.65 55.3999C394.25 55.4999 394.85 55.7999 395.45 56.1999C395.75 56.3999 396.05 56.5999 396.35 56.7999C396.65 56.9999 396.85 57.2999 397.15 57.4999C397.65 57.9999 398.15 58.4999 398.55 58.8999C399.35 59.6999 399.85 60.2999 399.85 60.2999C399.85 60.2999 399.75 60.0999 399.65 59.7999C399.55 59.4999 399.35 58.9999 399.05 58.4999C398.95 58.2999 398.75 57.9999 398.55 57.6999C398.35 57.3999 398.15 57.0999 397.85 56.8999C397.35 56.2999 396.75 55.7999 396.15 55.2999C395.85 55.0999 395.45 54.8999 395.05 54.6999C394.65 54.4999 394.25 54.3999 393.85 54.3999C393.75 54.3999 393.65 54.3999 393.55 54.3999C393.45 54.3999 393.35 54.3999 393.25 54.3999C393.15 54.3999 393.05 54.3999 392.95 54.4999C392.85 54.4999 392.75 54.4999 392.65 54.5999H392.55H392.45H392.35C392.25 54.5999 392.15 54.6999 392.05 54.6999C391.85 54.7999 391.75 54.8999 391.65 54.9999C391.45 55.1999 391.25 55.4999 391.25 55.6999C391.15 55.8999 391.15 56.0999 391.15 56.2999C391.15 56.4999 391.15 56.5999 391.15 56.6999C391.25 57.1999 391.25 57.1999 391.25 57.1999Z" fill="#CF9166"/>
<path d="M445.85 59.8999L445.05 59.1999C444.95 59.2999 444.85 59.4999 444.75 59.6999L442.65 71.3999C442.55 71.8999 442.85 72.2999 443.25 72.4999C448.05 74.5999 452.55 72.0999 455.05 68.5999C456.35 66.8999 457.25 64.8999 457.45 62.8999C457.75 60.9999 457.35 58.9999 456.05 57.5999C454.85 56.2999 453.45 55.6999 452.05 55.5999C450.75 55.4999 449.45 55.8999 448.45 56.3999C447.45 56.8999 446.55 57.5999 445.95 58.0999C445.65 58.3999 445.45 58.5999 445.25 58.7999C445.15 58.8999 445.05 58.9999 445.05 58.9999C445.05 58.9999 444.95 58.9999 444.95 59.0999C445.05 59.1999 445.05 59.1999 445.85 59.8999Z" fill="#EDAC7C" stroke="black" stroke-width="2.0368" stroke-linejoin="round"/>
<path d="M445.05 64.3001L443.95 70.3001C451.35 72.2001 456.45 62.1001 453.15 60.3001C450.45 59.0001 446.65 62.4001 445.05 64.3001Z" fill="#F7A588"/>
<path d="M454.15 62.7C454.15 62.7 454.15 62.7 454.15 62.6C454.15 62.5 454.15 62.4 454.05 62.2C453.95 61.9 453.75 61.4 453.45 61.1C453.35 61 453.25 60.9 453.15 60.9C453.05 60.9 453.05 60.8 452.95 60.8H452.85C452.75 60.8 452.65 60.8 452.65 60.7C452.55 60.7 452.55 60.7 452.45 60.7C452.35 60.7 452.25 60.7 452.25 60.7C452.15 60.7 452.15 60.7 452.05 60.7C451.45 60.7 450.75 60.9 450.15 61.2C449.85 61.3 449.45 61.5 449.15 61.7C448.85 61.9 448.55 62.1 448.25 62.3C447.65 62.7 447.15 63.1 446.65 63.4C445.75 64.1 445.15 64.6 445.15 64.6C445.15 64.6 445.25 64.4 445.45 64.1C445.65 63.8 445.95 63.4 446.25 63C446.45 62.8 446.65 62.5 446.85 62.3C447.05 62.1 447.35 61.8 447.65 61.6C448.25 61.1 448.85 60.7 449.65 60.3C450.05 60.1 450.45 60 450.85 59.9C451.25 59.8 451.65 59.8 452.15 59.8C452.25 59.8 452.35 59.8 452.45 59.8C452.55 59.8 452.65 59.8 452.75 59.9C452.85 59.9 452.95 60 453.05 60C453.15 60 453.25 60.1 453.35 60.1L453.45 60.2H453.55H453.65C453.75 60.3 453.85 60.3 453.85 60.4C453.95 60.5 454.15 60.7 454.15 60.8C454.35 61.1 454.45 61.4 454.45 61.6C454.45 61.8 454.45 62.1 454.45 62.2C454.45 62.4 454.45 62.5 454.35 62.6C454.25 62.6 454.15 62.7 454.15 62.7Z" fill="#CF9166"/>
<path d="M414.65 77.6001H427.05C427.05 77.6001 427.55 97.1001 427.65 97.1001C427.65 97.1001 426.75 101 421.25 101.1C415.75 101.2 414.35 97.1001 414.35 97.1001C414.45 97.0001 414.65 77.6001 414.65 77.6001Z" fill="#EDAC7C"/>
<path d="M413.65 77.6001C413.65 77.0001 414.15 76.6001 414.65 76.6001H427.05C427.65 76.6001 428.05 77.0001 428.05 77.6001H427.05C428.05 77.6001 428.05 77.6001 428.05 77.6001V77.8001V78.4001C428.05 78.9001 428.05 79.7001 428.15 80.6001C428.15 82.4001 428.25 84.9001 428.35 87.3001C428.45 89.7001 428.45 92.2001 428.55 94.0001C428.55 94.9001 428.55 95.7001 428.65 96.2001C428.65 96.5001 428.65 96.7001 428.65 96.8001C428.65 96.9001 428.65 96.9001 428.65 96.9001C428.65 97.0001 428.65 97.1001 428.65 97.3001L427.65 97.1001C428.65 97.3001 428.65 97.3001 428.65 97.3001C428.65 97.3001 428.65 97.3001 428.65 97.4001C428.65 97.4001 428.65 97.5001 428.65 97.6001C428.55 97.7001 428.55 97.9001 428.45 98.2001C428.25 98.6001 427.95 99.2001 427.35 99.8001C426.25 101 424.35 102.1 421.35 102.2C418.35 102.3 416.35 101.1 415.15 100C414.55 99.4001 414.15 98.8001 413.85 98.4001C413.75 98.2001 413.65 98.0001 413.55 97.8001C413.55 97.7001 413.45 97.7001 413.45 97.6001C413.45 97.6001 413.45 97.6001 413.45 97.5001C413.45 97.5001 413.45 97.5001 414.45 97.2001L413.65 77.6001ZM413.65 77.6001L427.35 98.0001C426.75 99.2001 425.05 101 421.25 101.1C415.75 101.2 414.35 97.1001 414.35 97.1001L413.65 77.6001ZM413.65 77.6001H414.65C413.65 77.6001 413.65 77.6001 413.65 77.6001V77.8001V78.4001V80.6001C413.65 82.4001 413.55 84.8001 413.55 87.3001C413.55 89.7001 413.45 92.2001 413.45 94.0001C413.45 94.9001 413.45 95.7001 413.45 96.2001C413.45 96.5001 413.45 96.7001 413.45 96.8001C413.45 96.9001 413.45 96.9001 413.45 97.0001L413.65 77.6001ZM413.65 77.6001L413.35 97.0001L413.65 77.6001ZM414.35 97.1001L413.35 97.4001C413.35 97.3001 413.25 97.1001 413.35 97.0001L414.35 97.1001ZM414.35 97.1001L413.35 97.0001L414.35 97.1001Z" fill="#CF9166"/>
<path d="M413.65 77.6001H414.65C413.65 77.6001 413.65 77.6001 413.65 77.6001ZM413.65 77.6001V77.8001V78.4001V80.6001C413.65 82.4001 413.55 84.8001 413.55 87.3001C413.55 89.7001 413.45 92.2001 413.45 94.0001C413.45 94.9001 413.45 95.7001 413.45 96.2001C413.45 96.5001 413.45 96.7001 413.45 96.8001C413.45 96.9001 413.45 96.9001 413.45 97.0001L413.65 77.6001ZM414.35 97.1001L413.35 97.0001M413.65 77.6001C413.65 77.0001 414.15 76.6001 414.65 76.6001H427.05C427.65 76.6001 428.05 77.0001 428.05 77.6001H427.05C428.05 77.6001 428.05 77.6001 428.05 77.6001V77.8001V78.4001C428.05 78.9001 428.05 79.7001 428.15 80.6001C428.15 82.4001 428.25 84.9001 428.35 87.3001C428.45 89.7001 428.45 92.2001 428.55 94.0001C428.55 94.9001 428.55 95.7001 428.65 96.2001C428.65 96.5001 428.65 96.7001 428.65 96.8001C428.65 96.9001 428.65 96.9001 428.65 96.9001C428.65 97.0001 428.65 97.1001 428.65 97.3001L427.65 97.1001C428.65 97.3001 428.65 97.3001 428.65 97.3001C428.65 97.3001 428.65 97.3001 428.65 97.4001C428.65 97.4001 428.65 97.5001 428.65 97.6001C428.55 97.7001 428.55 97.9001 428.45 98.2001C428.25 98.6001 427.95 99.2001 427.35 99.8001C426.25 101 424.35 102.1 421.35 102.2C418.35 102.3 416.35 101.1 415.15 100C414.55 99.4001 414.15 98.8001 413.85 98.4001C413.75 98.2001 413.65 98.0001 413.55 97.8001C413.55 97.7001 413.45 97.7001 413.45 97.6001C413.45 97.6001 413.45 97.6001 413.45 97.5001C413.45 97.5001 413.45 97.5001 414.45 97.2001L413.65 77.6001ZM413.65 77.6001L427.35 98.0001C426.75 99.2001 425.05 101 421.25 101.1C415.75 101.2 414.35 97.1001 414.35 97.1001L413.65 77.6001ZM413.65 77.6001L413.35 97.0001L413.65 77.6001ZM414.35 97.1001L413.35 97.4001C413.35 97.3001 413.25 97.1001 413.35 97.0001L414.35 97.1001Z" stroke="black" stroke-width="2.0368" stroke-linejoin="round"/>
<path d="M415.45 80.7L427.85 81.8C427.85 81.8 427.75 84.2999 427.75 86.3999C427.75 86.6999 424.15 86.9 423.75 87C420.65 87.2 417.75 86.5999 414.85 85.5999C415.05 83.3999 415.45 80.7 415.45 80.7Z" fill="#CF9166"/>
<path d="M397.45 50.1C398.45 41.5 402.95 33.7 411.75 31.1C416.25 29.8 421.05 29.7 425.65 30.2C430.25 30.7 435.05 31.4 439.25 33.4C446.65 37 445.25 40.9 445.35 48.9C445.35 49.7 450.25 53.9 450.15 54.7C450.05 56.5 450.05 58.2 449.85 60C449.35 64 448.35 68 446.75 71.6C444.75 76.1 441.75 80.1 437.65 82.9C435.35 84.5 432.65 85.6 429.95 86.3C425.45 87.5 421.15 87.6 416.65 86.4C413.55 85.6 410.65 84.3 408.05 82.5C403.75 79.5 400.65 75.1 398.95 70.2C397.55 66.1 396.95 61.7 396.95 57.4C396.95 55 397.15 52.6 397.55 50.3C397.35 50.3 397.35 50.2 397.45 50.1Z" fill="#CF9166"/>
<path d="M396.95 50.3999C396.95 50.3999 396.85 47 397.25 42.7C396.85 47.1 396.95 50.3999 396.95 50.3999Z" fill="#CF9166"/>
<path d="M407.45 83.5C400.65 80.6 396.25 76.6 393.75 72.1C391.25 67.6 390.55 62.6 390.95 57.7C391.85 47.9 397.15 38.1 401.05 32.2L407.45 83.5ZM407.45 83.5C415.55 87 427.85 87.8 437.85 84C442.95 82.1 447.45 79.1 450.65 74.6C453.85 70.1 455.55 64.3 455.05 56.9C454.35 46.8 451.25 39.4 446.65 34.2L407.45 83.5ZM407.45 83.5L446.65 34.2L407.45 83.5ZM446.65 34.2C442.05 29 436.15 26 430.15 24.7L446.65 34.2ZM446.65 34.2L430.15 24.7L446.65 34.2ZM430.15 24.7C424.15 23.4 417.95 23.7 412.75 25.1L430.15 24.7ZM430.15 24.7L412.75 25.1L430.15 24.7ZM412.65 25.1C407.45 26.5 403.15 29 400.95 32.2L412.65 25.1Z" fill="#7C391F" stroke="black" stroke-width="2.0368" stroke-linejoin="round"/>
<path d="M395.55 62.3C395.55 62.3 391.65 61.1 389.45 52.5C387.95 46.6 389.65 34.1 396.95 28.1C401.25 24.6 402.45 26.2 402.45 26.2C402.45 26.2 403.55 22 411.65 18.4C438.25 6.90001 444.95 19.4 448.75 29.7C453.95 43.8 451.35 54.3 423.55 45.2C412.35 41.5 405.25 39.7 405.25 39.7C405.25 39.7 405.35 43.3 403.05 48.5C400.85 53.7 395.45 59.3 395.45 59.3" fill="#93482B"/>
<path d="M389.45 52.4001L390.45 52.1001L389.45 52.4001ZM396.95 28.0001L397.65 28.8001L396.95 28.0001ZM402.45 26.1001L401.55 26.7001C401.75 27.0001 402.25 27.2001 402.65 27.1001C403.05 27.0001 403.35 26.7001 403.45 26.3001L402.45 26.1001ZM411.65 18.4001L411.25 17.4001L411.65 18.4001ZM448.75 29.7001L449.75 29.3001L448.75 29.7001ZM449.55 42.4001C449.45 43.0001 449.75 43.5001 450.35 43.7001C450.95 43.8001 451.55 43.5001 451.65 42.9001L449.55 42.4001ZM395.55 62.3001C395.85 61.3001 395.85 61.3001 395.85 61.3001C395.85 61.3001 395.85 61.3001 395.75 61.3001C395.65 61.3001 395.55 61.2001 395.45 61.1001C395.15 60.9001 394.65 60.6001 394.15 59.9001C393.05 58.7001 391.65 56.4001 390.55 52.2001L388.45 52.7001C389.55 57.2001 391.15 59.8001 392.55 61.3001C393.25 62.1001 393.85 62.5001 394.35 62.8001C394.55 62.9001 394.75 63.1001 394.95 63.1001C395.05 63.1001 395.05 63.2001 395.15 63.2001C395.15 63.2001 395.15 63.2001 395.25 63.2001C395.25 63.3001 395.25 63.3001 395.55 62.3001ZM390.45 52.1001C389.75 49.4001 389.75 44.9001 390.95 40.5001C392.05 36.0001 394.25 31.6001 397.65 28.8001L396.25 27.2001C392.35 30.4001 390.05 35.3001 388.85 40.0001C387.65 44.7001 387.55 49.5001 388.35 52.7001L390.45 52.1001ZM397.65 28.8001C399.75 27.1001 400.85 26.8001 401.35 26.8001C401.55 26.8001 401.65 26.8001 401.65 26.8001C401.65 26.8001 401.65 26.8001 402.55 26.2001C403.45 25.6001 403.45 25.6001 403.45 25.6001C403.45 25.6001 403.45 25.6001 403.45 25.5001L403.35 25.4001C403.25 25.3001 403.15 25.2001 402.95 25.1001C402.55 24.9001 402.15 24.8001 401.55 24.8001C400.35 24.8001 398.75 25.5001 396.55 27.3001L397.65 28.8001ZM402.45 26.1001C403.45 26.4001 403.45 26.4001 403.45 26.4001C403.45 26.4001 403.45 26.4001 403.45 26.3001C403.45 26.2001 403.55 26.1001 403.65 25.9001C403.85 25.5001 404.15 25.0001 404.75 24.3001C405.95 22.9001 408.05 21.1001 412.05 19.4001L411.25 17.4001C407.05 19.2001 404.65 21.2001 403.25 22.9001C402.55 23.7001 402.15 24.4001 401.85 25.0001C401.75 25.3001 401.65 25.5001 401.55 25.6001C401.55 25.7001 401.45 25.7001 401.45 25.8001C401.45 25.8001 401.45 25.8001 401.45 25.9001C401.45 25.9001 401.45 25.9001 402.45 26.1001ZM412.05 19.4001C425.25 13.7001 433.15 14.1001 438.25 16.8001C443.35 19.6001 445.85 24.9001 447.75 30.1001L449.75 29.4001C447.85 24.2001 445.15 18.2001 439.25 15.0001C433.35 11.8001 424.65 11.7001 411.25 17.5001L412.05 19.4001ZM402.15 48.1001C401.05 50.5001 399.25 53.2001 397.65 55.2001C396.85 56.2001 396.15 57.0001 395.55 57.6001C395.25 57.9001 395.05 58.1001 394.95 58.3001C394.85 58.4001 394.85 58.4001 394.75 58.5001C394.75 58.5001 394.75 58.5001 395.55 59.2001C396.35 59.9001 396.35 59.9001 396.35 59.9001C396.35 59.9001 396.35 59.9001 396.35 59.8001C396.35 59.8001 396.45 59.7001 396.55 59.6001C396.75 59.4001 396.95 59.2001 397.25 58.9001C397.85 58.3001 398.55 57.4001 399.35 56.4001C400.95 54.3001 402.95 51.6001 404.15 48.9001L402.15 48.1001ZM447.75 30.1001C449.55 35.0001 450.35 39.3001 449.55 42.4001L451.65 42.9001C452.65 39.2001 451.65 34.4001 449.85 29.4001L447.75 30.1001Z" fill="black"/>
<path d="M387.05 104L372.25 137.8C370.35 142.1 371.45 146.6 374.35 149.9C377.25 153.2 381.95 155.3 387.45 155.3H420.05H422.05H454.65C460.15 155.3 464.85 153.1 467.75 149.9C470.65 146.6 471.75 142.2 469.85 137.8L455.05 104C452.75 98.7 446.55 95.3 439.85 95.3H422.15H420.15H402.45C395.55 95.3 389.35 98.7 387.05 104Z" fill="#2B9FF2" stroke="black" stroke-width="2.0368" stroke-linejoin="round"/>
<path d="M399.65 190.7H442.95C451.95 190.7 459.25 183.4 459.25 174.4V117.6C459.25 108.6 451.95 101.3 442.95 101.3H399.65C390.65 101.3 383.35 108.6 383.35 117.6V174.4C383.35 183.4 390.65 190.7 399.65 190.7Z" fill="#697477" stroke="black" stroke-width="2.0368" stroke-linejoin="round"/>
<path d="M439.35 184.4H403.25C394.75 184.4 387.95 177.5 387.95 169.1V117.7C387.95 109.2 394.85 102.4 403.25 102.4H439.35C447.85 102.4 454.65 109.3 454.65 117.7V169.1C454.65 177.5 447.85 184.4 439.35 184.4Z" fill="#A0A7AC" stroke="black" stroke-width="2.0368" stroke-linejoin="round"/>
<path d="M402.15 93.3H438.25C447.25 93.3 454.55 86 454.55 77V64.3C454.55 55.3 447.25 48 438.25 48H402.15C393.15 48 385.85 55.3 385.85 64.3V77C385.85 86 393.15 93.3 402.15 93.3Z" fill="#697477" stroke="black" stroke-width="2.0368" stroke-linejoin="round"/>
<path d="M437.05 87.6H403.35C397.05 87.6 392.05 82.5 392.05 76.2V62.9C392.05 56.6 397.15 51.5 403.35 51.5H437.05C443.35 51.5 448.35 56.6 448.35 62.9V76.2C448.45 82.4 443.35 87.6 437.05 87.6Z" fill="#A0A7AC" stroke="black" stroke-width="2.0368" stroke-linejoin="round"/>
<path d="M419.85 212.5C431.85 212.5 442.75 211.4 450.65 209.5C454.65 208.6 457.85 207.4 460.15 206.2C461.35 205.6 462.25 204.9 462.95 204.1C463.65 203.3 464.05 202.4 464.05 201.4C464.05 200.4 463.65 199.5 462.95 198.7C462.25 197.9 461.35 197.2 460.15 196.6C457.85 195.3 454.55 194.2 450.65 193.3C442.75 191.4 431.85 190.3 419.85 190.3C407.85 190.3 396.95 191.4 389.05 193.3C385.05 194.2 381.85 195.4 379.55 196.6C378.35 197.2 377.45 197.9 376.75 198.7C376.05 199.5 375.65 200.4 375.65 201.4C375.65 202.4 376.05 203.3 376.75 204.1C377.45 204.9 378.35 205.6 379.55 206.2C381.85 207.5 385.15 208.6 389.05 209.5C396.95 211.3 407.85 212.5 419.85 212.5Z" fill="#889297" stroke="black" stroke-width="2.0368" stroke-linejoin="round"/>
<path d="M377.45 203.3C381.35 208 398.95 211.5 419.95 211.5C440.95 211.5 458.45 208 462.45 203.3H377.45Z" fill="#4D5557"/>
<path d="M426.25 263.1C426.85 263.1 427.25 262.6 427.25 262.1V158C427.25 153.9 423.95 150.6 419.85 150.6C415.75 150.6 412.45 153.9 412.45 158V262.1C412.45 262.7 412.95 263.1 413.45 263.1H426.25Z" fill="#232F38" stroke="black" stroke-width="2.0368" stroke-linejoin="round"/>
<path d="M424.35 154.2C424.95 154.2 425.35 153.7 425.35 153.2V64C425.35 61 422.85 58.5 419.85 58.5C416.85 58.5 414.35 61 414.35 64V153.2C414.35 153.8 414.85 154.2 415.35 154.2H424.35Z" fill="#232F38" stroke="black" stroke-width="2.0368" stroke-linejoin="round"/>
<path d="M420.45 209.8C420.35 209.3 419.95 208.9 419.35 208.9C418.85 208.9 401.55 210.3 382.55 204.7C379.45 203.8 377.05 201.4 375.45 198.1C373.75 194.8 372.75 190.5 372.25 185.8C371.25 176.9 372.15 166.8 373.25 160C375.75 159.9 377.95 159.5 379.55 159C380.45 158.7 381.25 158.4 381.85 158C382.45 157.6 383.05 157 383.05 156.1C383.05 155.1 382.35 154.5 381.65 154.1C380.95 153.7 380.05 153.3 378.95 153C376.75 152.4 373.85 152.1 370.65 152.1C367.45 152.1 364.45 152.4 362.35 153C361.25 153.3 360.35 153.6 359.65 154.1C359.05 154.5 358.25 155.2 358.25 156.1C358.25 156.9 358.75 157.5 359.25 157.9C359.75 158.3 360.45 158.6 361.25 158.9C362.55 159.4 364.35 159.7 366.35 159.9C365.45 165.7 364.35 176.3 365.45 186.4C366.65 197 370.45 207.6 380.45 210.6C393.85 214.6 406.35 215.3 413.55 215.3C417.45 215.3 419.85 215.1 420.15 215.1C420.45 215.1 420.65 214.9 420.85 214.7C421.05 214.5 421.15 214.2 421.05 213.9L420.45 209.8Z" fill="#33424E" stroke="black" stroke-width="2.0368" stroke-linejoin="round"/>
<path d="M422.35 208.9C421.85 208.9 421.35 209.2 421.25 209.8L420.75 213.9C420.75 214.2 420.75 214.5 420.95 214.7C421.15 214.9 421.35 215.1 421.65 215.1C421.95 215.1 424.35 215.3 428.25 215.3C435.55 215.3 447.95 214.6 461.35 210.6C471.35 207.6 475.15 197.1 476.35 186.4C477.45 176.3 476.25 165.7 475.45 159.9C477.45 159.7 479.25 159.3 480.55 158.9C481.35 158.6 482.05 158.3 482.55 157.9C483.05 157.5 483.55 156.9 483.55 156.1C483.55 155.1 482.85 154.5 482.15 154.1C481.45 153.7 480.45 153.3 479.45 153C477.25 152.4 474.35 152.1 471.15 152.1C467.95 152.1 464.95 152.4 462.75 153C461.65 153.3 460.75 153.6 460.05 154.1C459.45 154.5 458.65 155.2 458.65 156.1C458.65 157 459.25 157.6 459.85 158C460.45 158.4 461.25 158.7 462.15 159C463.85 159.5 465.95 159.8 468.45 160C469.55 166.8 470.45 176.9 469.45 185.8C468.95 190.5 467.95 194.7 466.25 198.1C464.55 201.4 462.25 203.8 459.15 204.7C440.25 210.4 422.85 209 422.35 208.9Z" fill="#33424E" stroke="black" stroke-width="2.0368" stroke-linejoin="round"/>
<path d="M419.95 278C424.65 278 428.45 274.2 428.45 269.5C428.45 264.8 424.65 261 419.95 261C415.25 261 411.45 264.8 411.45 269.5C411.45 274.2 415.25 278 419.95 278Z" fill="#232F38" stroke="black" stroke-width="2.0368" stroke-linejoin="round"/>
<path d="M419.95 162.8C424.65 162.8 428.45 159 428.45 154.3C428.45 149.6 424.65 145.8 419.95 145.8C415.25 145.8 411.45 149.6 411.45 154.3C411.45 159 415.25 162.8 419.95 162.8Z" fill="#232F38" stroke="black" stroke-width="2.0368" stroke-linejoin="round"/>
<path d="M419.85 218.3C423.05 218.3 425.65 215.7 425.65 212.5C425.65 209.3 423.05 206.7 419.85 206.7C416.65 206.7 414.05 209.3 414.05 212.5C414.05 215.7 416.65 218.3 419.85 218.3Z" fill="#232F38" stroke="black" stroke-width="1.3999" stroke-linejoin="round"/>
<path d="M379.45 278C384.15 278 387.95 274.2 387.95 269.5C387.95 264.8 384.15 261 379.45 261C374.75 261 370.95 264.8 370.95 269.5C370.95 274.2 374.75 278 379.45 278Z" fill="#232F38" stroke="black" stroke-width="2.0368" stroke-linejoin="round"/>
<path d="M462.75 278C467.45 278 471.25 274.2 471.25 269.5C471.25 264.8 467.45 261 462.75 261C458.05 261 454.25 264.8 454.25 269.5C454.25 274.2 458.05 278 462.75 278Z" fill="#232F38" stroke="black" stroke-width="2.0368" stroke-linejoin="round"/>
<path d="M456.85 260H382.95C379.95 260 377.45 261.4 377.45 263.1V264.3C377.45 266 379.95 267.4 382.95 267.4H456.85C459.85 267.4 462.35 266 462.35 264.3V263.1C462.35 261.4 459.95 260 456.85 260Z" fill="#232F38" stroke="black" stroke-width="2.0368" stroke-linejoin="round"/>
<path d="M323.516 239.402C321.416 239.402 319.616 241.202 319.716 243.302C319.816 245.402 321.516 247.002 323.616 247.002H363.016V239.302H323.516V239.402Z" fill="#ECF4FF"/>
<path d="M357.816 252.502H318.316V260.202H357.716C359.816 260.202 361.616 258.502 361.616 256.502C361.716 254.302 359.916 252.502 357.816 252.502Z" fill="#ECF4FF"/>
<path d="M357.816 265.602H318.316V273.302H357.716C359.816 273.302 361.616 271.602 361.616 269.602C361.716 267.402 359.916 265.602 357.816 265.602Z" fill="#ECF4FF"/>
<path d="M326.516 243.302C326.516 241.102 328.216 239.402 330.316 239.402H323.416C321.316 239.402 319.516 241.202 319.616 243.302C319.716 245.402 321.416 247.002 323.516 247.002H330.316C328.316 247.102 326.616 245.402 326.516 243.302Z" fill="#DDEAFB"/>
<path d="M318.316 252.502H325.216V260.202H318.316V252.502Z" fill="#DDEAFB"/>
<path d="M318.316 265.602H325.216V273.302H318.316V265.602Z" fill="#DDEAFB"/>
<path d="M330.916 239.202V243.702C330.916 244.002 331.216 244.102 331.416 244.002L332.716 243.002C332.816 242.902 333.016 242.902 333.116 243.002L334.416 244.002C334.616 244.202 334.916 244.002 334.916 243.702V239.202H330.916Z" fill="#477B9E"/>
<path d="M333.016 239.202H331.016V243.702C331.016 244.002 331.316 244.102 331.516 244.002L332.816 243.002C332.916 243.002 332.916 242.902 333.016 242.902V239.202Z" fill="#3F6D8E"/>
<path d="M350.416 252.302V256.802C350.416 257.102 350.116 257.202 349.916 257.102L348.616 256.102C348.516 256.002 348.316 256.002 348.216 256.102L346.916 257.102C346.716 257.302 346.416 257.102 346.416 256.802V252.302H350.416Z" fill="#477B9E"/>
<path d="M348.316 252.302H346.316V256.802C346.316 257.102 346.616 257.202 346.816 257.102L348.116 256.102C348.216 256.102 348.216 256.002 348.316 256.002V252.302Z" fill="#3F6D8E"/>
<path d="M350.416 265.502V270.002C350.416 270.302 350.116 270.402 349.916 270.302L348.616 269.302C348.516 269.202 348.316 269.202 348.216 269.302L346.916 270.302C346.716 270.502 346.416 270.302 346.416 270.002V265.502H350.416Z" fill="#477B9E"/>
<path d="M348.316 265.502H346.316V270.002C346.316 270.302 346.616 270.402 346.816 270.302L348.116 269.302C348.216 269.302 348.216 269.202 348.316 269.202V265.502Z" fill="#3F6D8E"/>
<path d="M323.516 239.502H363.616C364.016 239.502 364.316 239.202 364.316 238.802V237.302C364.316 236.902 364.016 236.602 363.616 236.602H323.616C320.016 236.602 317.016 239.502 316.916 243.102C316.816 246.802 319.816 249.802 323.416 249.802H363.516C363.916 249.802 364.216 249.502 364.216 249.102V247.602C364.216 247.202 363.916 246.902 363.516 246.902H323.516C321.516 246.902 319.816 245.302 319.716 243.302C319.816 241.202 321.516 239.502 323.516 239.502Z" fill="#BED8FB"/>
<path d="M329.216 246.902H323.616C321.616 246.902 319.916 245.302 319.816 243.302C319.716 241.202 321.416 239.502 323.516 239.502H329.216C330.416 237.802 332.416 236.602 334.716 236.602H323.716C320.116 236.602 317.116 239.502 317.016 243.102C316.916 246.802 319.916 249.802 323.516 249.802H334.616C332.316 249.802 330.316 248.602 329.216 246.902Z" fill="#7FB3FA"/>
<path d="M357.816 252.602H317.716C317.316 252.602 317.016 252.302 317.016 251.902V250.402C317.016 250.002 317.316 249.702 317.716 249.702H357.716C361.316 249.702 364.316 252.602 364.416 256.202C364.516 259.902 361.516 262.902 357.816 262.902H317.716C317.316 262.902 317.016 262.602 317.016 262.202V260.702C317.016 260.302 317.316 260.002 317.716 260.002H357.716C359.716 260.002 361.416 258.402 361.516 256.402C361.516 254.302 359.816 252.602 357.816 252.602Z" fill="#FFE07D"/>
<path d="M317.716 252.602H324.516C324.116 252.602 323.816 252.302 323.816 251.902V250.402C323.816 250.002 324.116 249.702 324.516 249.702H317.716C317.316 249.702 317.016 250.002 317.016 250.402V251.902C317.016 252.302 317.316 252.602 317.716 252.602Z" fill="#FFD064"/>
<path d="M323.816 262.202V260.702C323.816 260.302 324.116 260.002 324.516 260.002H317.716C317.316 260.002 317.016 260.302 317.016 260.702V262.202C317.016 262.602 317.316 262.902 317.716 262.902H324.516C324.116 262.902 323.816 262.602 323.816 262.202Z" fill="#FFD064"/>
<path d="M357.816 265.702H317.716C317.316 265.702 317.016 265.402 317.016 265.002V263.502C317.016 263.102 317.316 262.802 317.716 262.802H357.716C361.316 262.802 364.316 265.702 364.416 269.302C364.516 273.002 361.516 276.002 357.816 276.002H317.716C317.316 276.002 317.016 275.702 317.016 275.302V273.802C317.016 273.402 317.316 273.102 317.716 273.102H357.716C359.716 273.102 361.416 271.502 361.516 269.502C361.516 267.502 359.816 265.702 357.816 265.702Z" fill="#E28086"/>
<path d="M317.716 265.702H324.516C324.116 265.702 323.816 265.402 323.816 265.002V263.502C323.816 263.102 324.116 262.802 324.516 262.802H317.716C317.316 262.802 317.016 263.102 317.016 263.502V265.002C317.016 265.402 317.316 265.702 317.716 265.702Z" fill="#DD636E"/>
<path d="M323.816 275.302V273.802C323.816 273.402 324.116 273.102 324.516 273.102H317.716C317.316 273.102 317.016 273.402 317.016 273.802V275.302C317.016 275.702 317.316 276.002 317.716 276.002H324.516C324.116 276.002 323.816 275.702 323.816 275.302Z" fill="#DD636E"/>
<path d="M317.716 276.702H336.516C336.916 276.702 337.216 276.402 337.216 276.002C337.216 275.602 336.916 275.302 336.516 275.302H317.716V273.902H357.716C360.116 273.902 362.116 272.002 362.216 269.602C362.316 267.102 360.316 265.102 357.816 265.102C356.916 265.102 319.216 265.102 317.716 265.102V263.702H357.716C360.916 263.702 363.616 266.302 363.616 269.502C363.616 272.802 361.016 275.402 357.816 275.402H339.916C339.516 275.402 339.216 275.702 339.216 276.102C339.216 276.502 339.516 276.802 339.916 276.802H357.816C361.916 276.802 365.116 273.502 365.116 269.402C365.116 266.602 363.416 264.102 360.916 263.002C363.316 261.902 365.116 259.302 365.116 256.302C365.116 254.002 363.916 251.902 362.116 250.602H363.716C364.516 250.602 365.116 250.002 365.116 249.202V247.702C365.116 246.902 364.516 246.302 363.716 246.302V245.002C363.716 244.602 363.416 244.302 363.016 244.302C362.616 244.302 362.316 244.602 362.316 245.002V246.302H323.716C322.016 246.302 320.516 244.902 320.716 243.102C320.816 241.602 322.116 240.302 323.716 240.302H330.416V243.802C330.416 244.702 331.416 245.102 332.116 244.602L333.216 243.802L334.316 244.602C335.016 245.102 336.016 244.602 336.016 243.802V240.302H362.416V241.602C362.416 242.002 362.716 242.302 363.116 242.302C363.516 242.302 363.816 242.002 363.816 241.602V240.302C364.616 240.302 365.216 239.702 365.216 238.902V237.402C365.216 236.602 364.616 236.002 363.816 236.002H323.816C319.816 236.002 316.516 239.202 316.416 243.202C316.416 245.602 317.516 247.802 319.416 249.202H317.916C317.116 249.202 316.516 249.802 316.516 250.602V252.102C316.516 252.902 317.116 253.502 317.916 253.502V259.502C317.116 259.502 316.516 260.102 316.516 260.902V262.402C316.516 262.702 316.616 262.902 316.716 263.102C316.616 263.302 316.516 263.502 316.516 263.802V265.302C316.516 266.102 317.116 266.702 317.916 266.702V272.702C317.116 272.702 316.516 273.302 316.516 274.102V275.602C316.316 276.102 316.916 276.702 317.716 276.702ZM347.016 266.502H349.716V269.302L349.016 268.802C348.616 268.502 348.116 268.502 347.716 268.802L347.016 269.302V266.502ZM319.216 266.502H345.616V270.002C345.616 270.902 346.616 271.302 347.316 270.802L348.416 270.002L349.516 270.802C350.216 271.302 351.216 270.802 351.216 270.002V266.502H357.916C359.616 266.502 360.916 267.902 360.916 269.602C360.916 271.202 359.516 272.502 357.916 272.502H319.216V266.502ZM334.316 243.002L333.616 242.502C333.216 242.202 332.716 242.202 332.316 242.502L331.616 243.002V240.202H334.316V243.002ZM317.716 243.102C317.816 239.902 320.416 237.302 323.616 237.302H363.616V238.702C361.416 238.702 325.716 238.702 323.516 238.702C321.116 238.702 319.216 240.702 319.116 243.002C319.016 245.502 321.116 247.502 323.616 247.502H363.616V248.902C363.216 248.902 323.916 248.902 323.516 248.902C320.316 249.102 317.616 246.402 317.716 243.102ZM317.716 260.702H357.716C360.116 260.702 362.116 258.802 362.216 256.402C362.316 253.902 360.316 251.902 357.816 251.902C356.916 251.902 319.216 251.902 317.716 251.902V250.502H357.716C360.916 250.502 363.616 253.102 363.616 256.302C363.616 259.402 361.216 262.202 357.716 262.202H317.716V260.702ZM347.316 257.702L348.416 256.902L349.516 257.702C350.216 258.202 351.216 257.702 351.216 256.902V253.402H357.916C359.616 253.402 360.916 254.802 360.916 256.502C360.916 258.102 359.516 259.402 357.916 259.402H319.216V253.402H345.616V256.902C345.616 257.702 346.616 258.202 347.316 257.702ZM347.016 256.102V253.302H349.716V256.102L349.016 255.602C348.616 255.302 348.116 255.302 347.716 255.602L347.016 256.102Z" fill="black"/>
<rect x="278.016" y="276.602" width="309.8" height="11.8" rx="5.9" fill="#C38822" stroke="black" stroke-width="1.2"/>
<path d="M531.45 275.7C532.65 275.7 533.65 274.7 533.65 273.5C533.65 272.3 532.65 271.3 531.45 271.3H526.65C514.35 271.3 504.25 261.3 504.25 248.9C504.25 236.6 514.25 226.5 526.55 226.5H526.65C538.95 226.6 548.95 236.6 548.95 248.9C548.95 250.1 549.95 251.1 551.15 251.1C552.35 251.1 553.35 250.1 553.35 248.9C553.35 234.9 542.55 223.3 528.75 222.2C528.75 222.1 528.75 222 528.75 221.9C528.75 216.8 530.25 212 533.15 207.8C533.85 206.8 533.55 205.4 532.55 204.7C531.55 204 530.15 204.3 529.45 205.3C526.05 210.2 524.35 215.9 524.35 221.9C524.35 222 524.35 222.1 524.35 222.2C510.55 223.3 499.75 234.9 499.75 248.9C499.75 263.7 511.75 275.7 526.55 275.7H531.45Z" fill="black"/>
<path d="M542.95 180.5L536.35 174.1C532.45 170.3 527.35 168.3 521.95 168.3C516.55 168.3 511.45 170.4 507.55 174.1L500.95 180.5L492.65 188.6L504.15 189.4L510.25 180.5L512.05 178.8C517.65 173.4 526.35 173.4 531.95 178.8L533.75 180.5L540.65 188.8L547.15 185.5L542.95 180.5Z" fill="#F3EAE6"/>
<path d="M501.05 239.3H474.15L472.35 242.2V256.5C472.35 259.9 475.15 262.7 478.55 262.7L504.65 263.4V242.2L501.05 239.3Z" fill="#5F99D7"/>
<path d="M504.75 235.1V242.2H472.45V237.4C472.45 236.1 473.45 235.1 474.75 235.1H504.75Z" fill="#EFE2DD"/>
<path d="M568.05 238H545.05L540.45 242.2V262.8H564.85C568.25 262.8 571.05 260 571.05 256.6V242.3L568.05 238Z" fill="#5F99D7"/>
<path d="M571.15 237.4V242.2H540.45V235.1H568.85C570.05 235.1 571.15 236.1 571.15 237.4Z" fill="#EFE2DD"/>
<path d="M560.25 262C560.55 269.3 554.75 275.3 547.45 275.3H496.35C489.05 275.3 483.25 269.3 483.55 262L486.15 192.9C486.45 186 492.05 180.6 498.95 180.6H544.85C551.75 180.6 557.35 186.1 557.65 192.9L560.25 262Z" fill="#7BACDF"/>
<path d="M557.65 248.1L556.85 227.3C556.75 223.9 553.95 221.2 550.55 221.2H520.05C516.25 221.2 513.25 218.1 513.35 214.3L514.15 192.9C514.45 186 520.05 180.6 526.95 180.6H499.05C492.15 180.6 486.55 186.1 486.25 192.9L483.65 262C483.35 269.3 489.15 275.3 496.45 275.3H524.45C522.25 275.3 520.15 274.7 518.35 273.8C517.15 273.2 517.65 271.4 518.95 271.4H545.35C551.25 271.4 556.15 266.6 556.15 260.7V254.3C557.15 252.4 557.65 250.3 557.65 248.1Z" fill="#5F99D7"/>
<path d="M551.75 260.6C551.75 264.2 548.85 267 545.35 267H498.55C494.95 267 492.15 264.1 492.15 260.6V239.3H551.75V260.6Z" fill="#EFE2DD"/>
<path d="M550.55 225.5C551.65 225.5 552.45 226.3 552.55 227.4L553.35 248.2C553.55 252.2 550.25 255.6 546.25 255.6H497.75C493.75 255.6 490.45 252.2 490.65 248.2L491.45 227.4C491.45 226.3 492.35 225.5 493.45 225.5H550.55Z" fill="#E1D3CE"/>
<path d="M508.25 266.4L505.05 268.3C504.85 268.4 504.65 268.4 504.55 268.3L501.35 266.4C501.15 266.3 501.05 266.1 501.05 266V224.5C501.05 223.8 501.55 223.3 502.25 223.3H507.25C507.95 223.3 508.45 223.8 508.45 224.5V266C508.45 266.1 508.35 266.3 508.25 266.4Z" fill="#F3EAE6"/>
<path d="M535.95 266.4L539.15 268.3C539.35 268.4 539.55 268.4 539.65 268.3L542.85 266.4C543.05 266.3 543.15 266.1 543.15 266V224.5C543.15 223.8 542.65 223.3 541.95 223.3H536.95C536.25 223.3 535.75 223.8 535.75 224.5V266C535.65 266.1 535.75 266.3 535.95 266.4Z" fill="#F3EAE6"/>
<path d="M546.45 216.6H497.35C496.45 216.6 495.65 215.8 495.65 214.9V209.3C495.65 208.4 496.45 207.6 497.35 207.6H546.45C547.35 207.6 548.15 208.4 548.15 209.3V214.9C548.15 215.9 547.45 216.6 546.45 216.6Z" fill="#F3EAE6"/>
<path d="M513.65 216.6C513.45 215.9 513.25 215.1 513.35 214.3L513.65 207.7H497.45C496.55 207.7 495.75 208.5 495.75 209.4V215C495.75 215.9 496.55 216.7 497.45 216.7H513.65V216.6Z" fill="#EFE2DD"/>
<path d="M554.95 248.2L554.15 227.4C554.05 225.5 552.45 223.9 550.55 223.9H544.65C544.45 222.6 543.25 221.6 541.95 221.6H536.95C535.55 221.6 534.45 222.6 534.25 223.9H510.15C509.85 222.6 508.75 221.6 507.35 221.6H502.35C500.95 221.6 499.85 222.6 499.55 223.9H493.35C491.45 223.9 489.85 225.4 489.75 227.4L488.95 248.2C488.85 250.1 489.45 251.9 490.45 253.5V253.6V260.7C490.45 265.1 494.05 268.8 498.45 268.8H501.95L503.65 269.8C503.95 270 504.35 270.1 504.75 270.1C505.15 270.1 505.55 270 505.85 269.8L507.55 268.8H536.65L538.35 269.8C538.65 270 539.05 270.1 539.45 270.1C539.85 270.1 540.25 270 540.55 269.8L542.25 268.8H545.45C549.85 268.8 553.55 265.2 553.55 260.7V253.6C553.55 253.6 553.55 253.6 553.55 253.5C554.45 251.9 554.95 250.1 554.95 248.2ZM550.95 227.5L551.75 248.3C551.85 249.8 551.25 251.2 550.25 252.3C549.15 253.4 547.75 254 546.25 254H544.75V227.1H550.65C550.75 227.1 550.95 227.3 550.95 227.5ZM510.05 257.2H534.05V265.4H510.05V257.2ZM492.15 248.3L492.95 227.5C492.95 227.3 493.15 227.1 493.35 227.1H499.45V254H497.65C496.15 254 494.75 253.4 493.65 252.3C492.65 251.2 492.15 249.8 492.15 248.3ZM493.75 260.6V256.3C494.95 256.9 496.35 257.3 497.75 257.3H499.55V265.5H498.65C495.85 265.4 493.75 263.3 493.75 260.6ZM504.75 266.5L502.65 265.3V224.8H506.85V237.1C506.85 238 507.55 238.7 508.45 238.7C509.35 238.7 510.05 238 510.05 237.1V227.1H534.05V254H510.05V244C510.05 243.1 509.35 242.4 508.45 242.4C507.55 242.4 506.85 243.1 506.85 244V265.3L504.75 266.5ZM537.25 265.3V224.8H541.35V265.3L539.25 266.5L537.25 265.3ZM545.25 265.4H544.65V257.2H546.15C547.55 257.2 548.85 256.9 550.15 256.3V260.6C550.15 263.3 547.95 265.4 545.25 265.4Z" fill="black"/>
<path d="M497.45 209.3H503.75C504.65 209.3 505.35 208.6 505.35 207.7C505.35 206.8 504.65 206.1 503.75 206.1H497.45C495.65 206.1 494.15 207.6 494.15 209.4V215C494.15 216.8 495.65 218.3 497.45 218.3H546.55C548.35 218.3 549.85 216.8 549.85 215V209.4C549.85 207.6 548.35 206.1 546.55 206.1H510.55C509.65 206.1 508.95 206.8 508.95 207.7C508.95 208.6 509.65 209.3 510.55 209.3H546.55C546.55 209.3 546.65 209.3 546.65 209.4V215C546.65 215 546.65 215.1 546.55 215.1H497.45C497.45 215.1 497.35 215.1 497.35 215L497.45 209.3C497.35 209.3 497.35 209.3 497.45 209.3Z" fill="black"/>
<path d="M568.85 233.5H560.85L559.65 202.5C559.65 201.6 558.85 200.9 557.95 200.9C557.05 200.9 556.35 201.7 556.35 202.6L558.55 262C558.65 265.1 557.55 268 555.45 270.2C553.35 272.4 550.45 273.6 547.35 273.6H496.25C493.15 273.6 490.35 272.4 488.15 270.2C486.05 268 484.95 265.1 485.05 262L487.65 192.9C487.85 186.9 492.75 182.1 498.85 182.1H544.75C550.75 182.1 555.75 186.8 555.95 192.9L556.05 195.7C556.05 196.6 556.85 197.3 557.75 197.3C558.65 197.3 559.35 196.5 559.35 195.6L559.25 192.8C558.95 185 552.65 178.9 544.85 178.9H543.55L537.35 173C533.15 169 527.65 166.7 521.75 166.7C515.95 166.7 510.45 168.9 506.25 173L500.05 178.9H498.85C491.05 178.9 484.75 185 484.45 192.8L482.95 233.5H474.65C472.45 233.5 470.75 235.3 470.75 237.4V256.6C470.75 260.9 474.25 264.5 478.55 264.5H481.95C482.35 267.5 483.65 270.3 485.85 272.5C488.65 275.3 492.25 276.9 496.25 276.9H547.35C551.25 276.9 554.95 275.3 557.75 272.5C559.95 270.3 561.25 267.5 561.65 264.5H564.75C569.05 264.5 572.55 261 572.55 256.6V237.4C572.75 235.2 570.95 233.5 568.85 233.5ZM514.35 178.9C518.85 175.5 525.05 175.5 529.55 178.9H514.35ZM508.65 175.3C512.25 171.8 516.95 169.9 521.95 169.9C526.95 169.9 531.65 171.8 535.25 175.3L539.05 178.9H534.35L533.05 177.6C526.85 171.6 517.15 171.6 510.95 177.6L509.65 178.9H505.05L508.65 175.3ZM474.75 236.7H482.95L482.75 240.6H474.05V237.4C474.05 237 474.35 236.7 474.75 236.7ZM474.05 256.6V243.9H482.65L482.05 261.2H478.75C476.15 261.2 474.05 259.1 474.05 256.6ZM568.85 236.7C569.25 236.7 569.55 237 569.55 237.4V240.6H561.15L560.95 236.7H568.85ZM564.85 261.2H561.85L561.15 243.9H569.45V256.6C569.55 259.1 567.45 261.2 564.85 261.2Z" fill="black"/>
<path d="M518.75 176.6V167.7C518.75 166.4 519.75 165.4 521.05 165.4H523.35C524.65 165.4 525.65 166.4 525.65 167.7V176.7" fill="#FFB940"/>
<path d="M518.75 176.6V167.7C518.75 166.4 519.75 165.4 521.05 165.4H523.35C524.65 165.4 525.65 166.4 525.65 167.7V176.7" stroke="black" stroke-width="2"/>
</g>
<defs>
<clipPath id="clip0">
<rect width="876" height="491" fill="white"/>
</clipPath>
</defs>
</svg>
