<?xml version="1.0" standalone="no"?><svg xmlns="http://www.w3.org/2000/svg" viewBox="0 0 1440 320"><path fill="#e7008a" fill-opacity="1" d="M0,160L24,138.7C48,117,96,75,144,96C192,117,240,203,288,218.7C336,235,384,181,432,138.7C480,96,528,64,576,90.7C624,117,672,203,720,234.7C768,267,816,245,864,234.7C912,224,960,224,1008,218.7C1056,213,1104,203,1152,170.7C1200,139,1248,85,1296,69.3C1344,53,1392,75,1416,85.3L1440,96L1440,320L1416,320C1392,320,1344,320,1296,320C1248,320,1200,320,1152,320C1104,320,1056,320,1008,320C960,320,912,320,864,320C816,320,768,320,720,320C672,320,624,320,576,320C528,320,480,320,432,320C384,320,336,320,288,320C240,320,192,320,144,320C96,320,48,320,24,320L0,320Z"></path></svg>