<?xml version="1.0" standalone="no"?><svg xmlns="http://www.w3.org/2000/svg" viewBox="0 0 1440 320"><path fill="#e7008a" fill-opacity="0.8" d="M0,128L0,96L55.4,96L55.4,64L110.8,64L110.8,96L166.2,96L166.2,128L221.5,128L221.5,224L276.9,224L276.9,224L332.3,224L332.3,32L387.7,32L387.7,128L443.1,128L443.1,256L498.5,256L498.5,128L553.8,128L553.8,256L609.2,256L609.2,192L664.6,192L664.6,288L720,288L720,128L775.4,128L775.4,64L830.8,64L830.8,96L886.2,96L886.2,0L941.5,0L941.5,192L996.9,192L996.9,128L1052.3,128L1052.3,64L1107.7,64L1107.7,224L1163.1,224L1163.1,96L1218.5,96L1218.5,288L1273.8,288L1273.8,256L1329.2,256L1329.2,160L1384.6,160L1384.6,128L1440,128L1440,320L1384.6,320L1384.6,320L1329.2,320L1329.2,320L1273.8,320L1273.8,320L1218.5,320L1218.5,320L1163.1,320L1163.1,320L1107.7,320L1107.7,320L1052.3,320L1052.3,320L996.9,320L996.9,320L941.5,320L941.5,320L886.2,320L886.2,320L830.8,320L830.8,320L775.4,320L775.4,320L720,320L720,320L664.6,320L664.6,320L609.2,320L609.2,320L553.8,320L553.8,320L498.5,320L498.5,320L443.1,320L443.1,320L387.7,320L387.7,320L332.3,320L332.3,320L276.9,320L276.9,320L221.5,320L221.5,320L166.2,320L166.2,320L110.8,320L110.8,320L55.4,320L55.4,320L0,320L0,320Z"></path></svg>