<?xml version="1.0" standalone="no"?><svg xmlns="http://www.w3.org/2000/svg" viewBox="0 0 1440 320"><path fill="#ff59b3" fill-opacity="1" d="M0,96L0,128L80,128L80,32L160,32L160,320L240,320L240,96L320,96L320,224L400,224L400,192L480,192L480,128L560,128L560,96L640,96L640,192L720,192L720,256L800,256L800,128L880,128L880,160L960,160L960,32L1040,32L1040,192L1120,192L1120,160L1200,160L1200,224L1280,224L1280,64L1360,64L1360,32L1440,32L1440,320L1360,320L1360,320L1280,320L1280,320L1200,320L1200,320L1120,320L1120,320L1040,320L1040,320L960,320L960,320L880,320L880,320L800,320L800,320L720,320L720,320L640,320L640,320L560,320L560,320L480,320L480,320L400,320L400,320L320,320L320,320L240,320L240,320L160,320L160,320L80,320L80,320L0,320L0,320Z"></path></svg>